<?xml version="1.0" encoding="UTF-8"?><svg version="1.1" width="644px" height="646px" viewBox="0 0 644.0 646.0" xmlns="http://www.w3.org/2000/svg" xmlns:xlink="http://www.w3.org/1999/xlink"><defs><clipPath id="i0"><path d="M1,0 L1,644 L0,644 L0,0 L1,0 Z"></path></clipPath><clipPath id="i1"><path d="M644,0 L644,1 L0,1 L0,0 L644,0 Z"></path></clipPath><clipPath id="i2"><path d="M5,0 L5,1 L0,1 L0,0 L5,0 Z"></path></clipPath><clipPath id="i3"><path d="M1,0 L1,5 L0,5 L0,0 L1,0 Z"></path></clipPath></defs><g opacity="52.3832775%"><g transform="translate(322.0 2.0)"><g clip-path="url(#i0)"><polygon points="0,0 1,0 1,644 0,644 0,0" stroke="none" fill="#D7D7D7" opacity="10.6329055%"></polygon></g></g><g transform="translate(641.0 0.0)"><g clip-path="url(#i0)"><polygon points="0,0 1,0 1,644 0,644 0,0" stroke="none" fill="#D7D7D7" opacity="10.6329055%"></polygon></g></g><g transform="translate(0.0 324.0)"><g clip-path="url(#i1)"><polygon points="0,0 644,0 644,1 0,1 0,0" stroke="none" fill="#FFFFFF" opacity="10.6329055%"></polygon></g></g><g transform="translate(0.0 643.0)"><g clip-path="url(#i1)"><polygon points="0,0 644,0 644,1 0,1 0,0" stroke="none" fill="#FFFFFF" opacity="10.6329055%"></polygon></g></g></g><g transform="translate(320.0 322.0)"><g transform="translate(0.0 2.0)"><g clip-path="url(#i2)"><polygon points="0,0 5,0 5,1 0,1 0,0" stroke="none" fill="#FFFFFF"></polygon></g></g><g transform="translate(2.0 0.0)"><g clip-path="url(#i3)"><polygon points="0,0 1,0 1,5 0,5 0,0" stroke="none" fill="#FFFFFF"></polygon></g></g></g><g transform="translate(320.0 641.0)"><g transform="translate(0.0 2.0)"><g clip-path="url(#i2)"><polygon points="0,0 5,0 5,1 0,1 0,0" stroke="none" fill="#FFFFFF"></polygon></g></g><g transform="translate(2.0 0.0)"><g clip-path="url(#i3)"><polygon points="0,0 1,0 1,5 0,5 0,0" stroke="none" fill="#FFFFFF"></polygon></g></g></g><g transform="translate(639.0 641.0)"><g transform="translate(0.0 2.0)"><g clip-path="url(#i2)"><polygon points="0,0 5,0 5,1 0,1 0,0" stroke="none" fill="#FFFFFF"></polygon></g></g><g transform="translate(2.0 0.0)"><g clip-path="url(#i3)"><polygon points="0,0 1,0 1,5 0,5 0,0" stroke="none" fill="#FFFFFF"></polygon></g></g></g><g transform="translate(639.0 322.0)"><g transform="translate(0.0 2.0)"><g clip-path="url(#i2)"><polygon points="0,0 5,0 5,1 0,1 0,0" stroke="none" fill="#FFFFFF"></polygon></g></g><g transform="translate(2.0 0.0)"><g clip-path="url(#i3)"><polygon points="0,0 1,0 1,5 0,5 0,0" stroke="none" fill="#FFFFFF"></polygon></g></g></g></svg>